:SAMPLES-PER-SECOND 30
:FULLY-SPECIFIED
:DEGREES
336
root  13.6775 39.3565 0.664256 -11.2692 -55.7603 13.5497
RightUpLeg  -7.78669 -23.3497 -6.43603
RightLeg  49.9124 15.675 18.6134
RightFoot  3.59448 -3.09907 23.8356
RightToes  0.00048216 0.542163 -0.142577
Spine  16.9878 8.87197 6.8205
Spine1  9.63431 16.1083 -20.4396
HEad  11.5048 -26.697 5.1234
LeftShoulder1  9.24109 -14.3129 -45.2079
LeftArm  -28.1878 39.2765 -21.9372
LeftForeArm  -0.815883 -59.5805 -19.7115
LeftHand  -0.25398 0.0180481 5.50724
RightShoulder  6.91731 13.1559 35.5368
RightArm  55.356 26.9243 70.2808
RightForeArm  -35.4969 32.22 8.7584
RightHand  -0.442679 -1.8549 -14.2266
LeftUpLeg  -15.5073 10.3239 -10.0921
LeftLeg  17.8987 0.852941 -1.18734
LeftFoot  -2.55725 -0.226538 3.15076
LeftToes  1.06246e-005 4.65855e-005 -8.185e-006
337
root  12.8766 39.5773 0.666887 -11.1479 -57.7213 12.9952
RightUpLeg  -12.2057 -24.1017 -7.22351
RightLeg  54.3125 8.41446 11.9917
RightFoot  4.2292 -2.7463 20.0088
RightToes  0.00048216 0.542163 -0.142577
Spine  17.6875 8.53048 6.92642
Spine1  9.7163 15.6361 -19.6608
HEad  10.9809 -25.2164 4.48099
LeftShoulder1  9.19249 -14.2628 -45.0925
LeftArm  -28.0267 39.2219 -22.8379
LeftForeArm  -1.99125 -58.6056 -19.0046
LeftHand  -0.25398 0.0180481 5.50724
RightShoulder  6.89076 13.0968 35.5254
RightArm  55.6854 27.161 70.193
RightForeArm  -35.1544 32.9882 8.96452
RightHand  -0.459851 -1.86737 -14.8448
LeftUpLeg  -13.4373 10.5305 -7.80827
LeftLeg  16.8565 2.52325 -1.3702
LeftFoot  -3.23559 -0.163408 2.58266
LeftToes  1.06246e-005 4.65855e-005 -8.185e-006
338
root  12.0473 39.8837 0.671925 -9.84309 -59.4018 11.4384
RightUpLeg  -16.5454 -25.2826 -7.08814
RightLeg  55.8143 2.18731 3.13941
RightFoot  2.69552 -1.46715 12.0192
RightToes  0.00048216 0.542163 -0.142577
Spine  18.0542 8.09116 7.93858
Spine1  9.72806 15.1988 -18.9456
HEad  10.5921 -24.45 4.52919
LeftShoulder1  9.18334 -14.3102 -44.9208
LeftArm  -27.1971 38.6873 -23.4769
LeftForeArm  -3.47463 -57.2684 -18.0941
LeftHand  -0.25398 0.0180481 5.50724
RightShoulder  6.90213 13.0634 35.6749
RightArm  54.313 26.9806 69.6353
RightForeArm  -33.819 33.8602 9.1701
RightHand  -0.449338 -2.01462 -15.1065
LeftUpLeg  -10.9974 10.41 -5.1058
LeftLeg  14.6606 4.15981 -1.76555
LeftFoot  -3.38547 -0.0731971 1.34916
LeftToes  1.06246e-005 4.65855e-005 -8.185e-006
339
root  11.2318 40.1237 0.674296 -8.18886 -60.9525 9.56093
RightUpLeg  -20.1909 -26.2925 -6.77198
RightLeg  53.9189 -1.53707 -2.64461
RightFoot  1.15627 -0.765716 7.09581
RightToes  0.00048216 0.542163 -0.142577
Spine  18.511 7.57134 9.40535
Spine1  9.576 14.8544 -18.8293
HEad  10.431 -24.047 4.83754
LeftShoulder1  9.19942 -14.4242 -44.7039
LeftArm  -26.3762 38.1007 -24.1041
LeftForeArm  -5.29667 -55.8077 -17.1977
LeftHand  -0.25398 0.0180481 5.50724
RightShoulder  6.89297 13.0348 35.6913
RightArm  52.4322 26.4914 69.0776
RightForeArm  -32.3201 34.7294 9.37235
RightHand  -0.380413 -2.51682 -14.8533
LeftUpLeg  -8.78236 9.6005 -2.57317
LeftLeg  12.78 5.97646 -2.10882
LeftFoot  -3.60252 -0.00828911 0.443786
LeftToes  1.06246e-005 4.65855e-005 -8.185e-006
340
root  10.3996 40.2326 0.65275 -7.14014 -62.3946 8.34769
RightUpLeg  -22.6863 -26.9366 -6.66875
RightLeg  48.5251 -2.9955 -4.00077
RightFoot  -0.0259321 -0.541102 5.46767
RightToes  0.00048216 0.542163 -0.142577
Spine  18.972 7.03624 10.233
Spine1  9.30953 14.3944 -18.8736
HEad  10.4309 -23.3987 4.98373
LeftShoulder1  9.2009 -14.4764 -44.5756
LeftArm  -26.0573 37.8466 -24.9099
LeftForeArm  -7.03025 -54.6327 -16.5536
LeftHand  -0.25398 0.0180481 5.50724
RightShoulder  6.84354 12.9731 35.5507
RightArm  51.8566 26.2386 68.8944
RightForeArm  -31.6288 35.2259 9.49595
RightHand  -0.292471 -3.14822 -14.3328
LeftUpLeg  -7.06912 8.59062 -0.635633
LeftLeg  12.0073 7.82018 -2.18764
LeftFoot  -4.25831 0.0488996 -0.38557
LeftToes  1.06246e-005 4.65855e-005 -8.185e-006
341
root  9.48956 40.2321 0.58658 -6.90733 -63.6375 8.2856
RightUpLeg  -24.264 -27.8684 -6.61355
RightLeg  40.0003 -3.00771 -3.00022
RightFoot  -0.689482 -0.474425 5.0387
RightToes  0.00048216 0.542163 -0.142577
Spine  19.0313 6.59617 10.0315
Spine1  9.0103 13.7902 -18.7631
HEad  10.4325 -22.4917 4.97828
LeftShoulder1  9.17624 -14.4501 -44.5189
LeftArm  -26.0288 37.8442 -25.791
LeftForeArm  -8.41959 -53.8237 -16.1499
LeftHand  -0.25398 0.0180481 5.50724
RightShoulder  6.801 12.9163 35.4379
RightArm  52.4384 26.336 68.8928
RightForeArm  -31.4712 35.2969 9.51163
RightHand  -0.254625 -3.41408 -13.9609
LeftUpLeg  -5.79268 7.94599 0.737431
LeftLeg  11.9532 9.52865 -2.22665
LeftFoot  -5.27639 0.104926 -1.37626
LeftToes  1.06246e-005 4.65855e-005 -8.185e-006
342
root  8.48895 40.2155 0.487548 -7.11212 -64.7697 8.96237
RightUpLeg  -25.2564 -30.2595 -5.97851
RightLeg  29.0627 -2.33345 -1.80904
RightFoot  -0.428886 -0.514165 5.34738
RightToes  0.00048216 0.542163 -0.142577
Spine  18.684 6.3191 9.67054
Spine1  8.76024 13.3204 -18.6146
HEad  10.316 -21.8364 4.97144
LeftShoulder1  9.17042 -14.4453 -44.5016
LeftArm  -25.9568 37.7898 -26.4357
LeftForeArm  -9.50097 -53.1617 -15.8282
LeftHand  -0.25398 0.0180481 5.50724
RightShoulder  6.8128 12.9296 35.4754
RightArm  52.8397 26.407 68.6091
RightForeArm  -31.1672 35.3567 9.51812
RightHand  -0.27434 -3.23487 -13.8999
LeftUpLeg  -4.29435 7.41468 1.84682
LeftLeg  11.2578 11.128 -2.56887
LeftFoot  -6.10625 0.138999 -2.23001
LeftToes  1.06246e-005 4.65855e-005 -8.185e-006
